<?xml version="1.0" encoding="UTF-8" standalone="no"?>
<svg
   xmlns:dc="http://purl.org/dc/elements/1.1/"
   xmlns:cc="http://creativecommons.org/ns#"
   xmlns:rdf="http://www.w3.org/1999/02/22-rdf-syntax-ns#"
   xmlns:svg="http://www.w3.org/2000/svg"
   xmlns="http://www.w3.org/2000/svg"
   id="svg1756"
   version="1.1"
   viewBox="0 0 64.395515 9.7366505"
   height="9.7366505mm"
   width="64.395515mm">
  <defs
     id="defs1750" />
  <metadata
     id="metadata1753">
    <rdf:RDF>
      <cc:Work
         rdf:about="">
        <dc:format>image/svg+xml</dc:format>
        <dc:type
           rdf:resource="http://purl.org/dc/dcmitype/StillImage" />
        <dc:title></dc:title>
      </cc:Work>
    </rdf:RDF>
  </metadata>
  <g
     transform="translate(-81.951053,-42.667389)"
     id="layer1">
    <path
       d="m 85.358853,49.387789 0.28575,-0.0317 q 0.0847,0 0.0847,0.0847 0,0.14816 -0.20108,0.22225 -0.201081,0.0741 -0.455081,0.0741 -0.47625,0 -0.804339,-0.381 -0.3175,-0.381 -0.889,-1.40758 -0.13758,-0.22225 -0.13758,-0.33867 0,-0.15875 0.4445,-0.37042 0.71967,-0.37041 0.71967,-0.93133 0,-0.15875 -0.11642,-0.26458 -0.10583,-0.11642 -0.28575,-0.11642 -0.254,0 -0.60325,0.60325 -0.34925,0.59267 -0.47625,1.12183 -0.11642,0.51859 -0.11642,1.12184 0,0.29633 -0.16933,0.29633 -0.24342,0 -0.46567,-0.0635 -0.22225,-0.0741 -0.22225,-0.17992 0,-0.11641 0.0847,-1.00541 0.0847,-0.89959 0.0953,-1.29117 0.0423,-2.159 0.254,-3.302 0.0317,-0.0953 0.28575,-0.32808 0.26458,-0.23284 0.42333,-0.23284 0.15875,0 0.14817,0.40217 0,0.39158 -0.16933,1.69333 -0.16934,1.30175 -0.21167,2.38125 0.1905,-0.67733 0.60325,-1.28058 0.42333,-0.60325 0.84667,-0.60325 0.719659,0 0.719659,0.6985 0,0.46567 -0.275159,0.84667 -0.27517,0.37041 -0.74084,0.60325 -0.0952,0.0423 -0.0952,0.0952 0,0.0529 0.0317,0.10583 0.666749,1.17475 1.13242,1.651 0.127,0.127 0.27517,0.127 z"
       style="font-style:normal;font-variant:normal;font-weight:normal;font-stretch:normal;font-size:10.58333302px;line-height:1.25;font-family:Cookie;-inkscape-font-specification:Cookie;letter-spacing:0px;word-spacing:0px;display:inline;fill:#2a2f36;fill-opacity:1;stroke:none;stroke-width:0.26458332"
       id="path1711" />
    <path
       d="m 88.901623,46.720789 q 0.42333,-0.13758 0.58208,-0.23283 0.16934,-0.10584 0.254,-0.15875 l 0.127,-0.0741 q 0.0529,-0.0318 0.0847,-0.0318 0.0847,0 0.0847,0.0953 0,0.0953 -0.32809,0.33867 -0.32808,0.23283 -0.81491,0.42333 -0.0741,0.889 -0.56092,1.43934 -0.486831,0.55033 -1.38642,0.55033 -0.656161,0 -1.005411,-0.51858 -0.34925,-0.52917 -0.34925,-1.22767 0,-0.70908 0.41275,-1.3335 0.423331,-0.62442 1.0795,-0.62442 0.296331,-0.21166 0.6985,-0.21166 0.41275,0 0.762001,0.43391 0.34925,0.43392 0.35983,1.13242 z m -0.68792,0.53975 -0.381,0.0212 q -0.48683,0 -0.825501,-0.28575 -0.338659,-0.29634 -0.338659,-0.64559 0,-0.34925 0.116409,-0.60325 -0.455079,0.35984 -0.455079,1.41817 0,0.508 0.21167,0.97367 0.211659,0.45508 0.66675,0.45508 0.45508,0 0.70908,-0.381 0.254,-0.39158 0.29633,-0.9525 z m -0.65616,-1.75683 q -0.169341,0 -0.264591,0.15875 -0.0952,0.14816 -0.0952,0.32808 0,0.39158 0.264591,0.635 0.275159,0.24342 0.635,0.24342 h 0.127 q -0.0212,-0.51859 -0.17992,-0.94192 -0.148171,-0.42333 -0.48683,-0.42333 z"
       style="font-style:normal;font-variant:normal;font-weight:normal;font-stretch:normal;font-size:10.58333302px;line-height:1.25;font-family:Cookie;-inkscape-font-specification:Cookie;letter-spacing:0px;word-spacing:0px;display:inline;fill:#2a2f36;fill-opacity:1;stroke:none;stroke-width:0.26458332"
       id="path1713" />
    <path
       d="m 90.259263,48.445869 0.0106,0.32809 q 0,0.29633 -0.16934,0.29633 -0.254,0 -0.48683,-0.0635 -0.23283,-0.0741 -0.23283,-0.1905 0,-0.127 0.0529,-0.83608 0.0635,-0.71967 0.0635,-1.0795 v -0.62442 q 0,-0.508 0.10584,-0.61383 0.10583,-0.10584 0.37041,-0.30692 0.27517,-0.20108 0.39159,-0.20108 0.127,0 0.15875,0.0423 0.0317,0.0423 0.0317,0.15875 0,0.56092 -0.21167,1.05833 -0.0529,0.60325 -0.0529,0.83609 0.0423,-0.0635 0.4445,-0.71967 0.40217,-0.65617 0.67734,-0.96308 0.28575,-0.30692 0.508,-0.30692 0.22225,0 0.39158,0.14817 0.17992,0.14816 0.17992,0.37041 0,0.46567 -0.10584,1.37584 -0.0952,0.89958 -0.0952,1.143 0,0.23283 0.0635,0.23283 0.17992,-0.0106 0.49742,-0.4445 0.3175,-0.4445 0.62442,-1.13242 0.3175,-0.68791 0.381,-0.68791 0.0741,0 0.0741,0.0847 0,0.29634 -0.30692,0.94192 -0.83608,1.778 -1.40758,1.778 -0.41275,0 -0.62442,-0.16933 -0.0741,-0.0741 -0.0741,-0.381 0,-0.3175 0.0529,-1.016 0.0635,-0.70909 0.0635,-1.05834 0,-0.34925 -0.127,-0.34925 -0.11642,0 -0.635,0.73025 -0.51859,0.71967 -0.55034,0.92075 -0.0635,0.37042 -0.0635,0.6985 z"
       style="font-style:normal;font-variant:normal;font-weight:normal;font-stretch:normal;font-size:10.58333302px;line-height:1.25;font-family:Cookie;-inkscape-font-specification:Cookie;letter-spacing:0px;word-spacing:0px;display:inline;fill:#2a2f36;fill-opacity:1;stroke:none;stroke-width:0.26458332"
       id="path1715" />
    <path
       d="m 95.731843,47.292289 q -0.83609,1.778 -1.41817,1.778 -0.5715,0 -0.67733,-0.13758 -0.0952,-0.13759 -0.0952,-0.91017 0,-0.77258 0.14816,-2.23308 -0.52916,-0.10584 -0.56091,-0.43392 0,-0.16933 0.22225,-0.16933 0.22225,0 0.39158,0.0847 0.0953,-0.762 0.22225,-1.54516 0.0318,-0.20109 0.20108,-0.381 0.16934,-0.17992 0.32809,-0.17992 0.13758,0 0.13758,0.43392 0,0.20108 -0.14817,1.85208 0.28575,-0.0529 0.62442,-0.21167 0.34925,-0.15875 0.41275,-0.15875 0.1905,0 0.1905,0.11642 0.0106,0.10583 -0.39158,0.29633 -0.40217,0.17992 -0.86784,0.27517 -0.127,1.54517 -0.127,2.33892 0,0.42333 0.127,0.42333 0.1905,-0.0106 0.508,-0.4445 0.3175,-0.43392 0.62442,-1.12183 0.3175,-0.6985 0.381,-0.6985 0.0741,0 0.0741,0.0847 0,0.29634 -0.30691,0.94192 z"
       style="font-style:normal;font-variant:normal;font-weight:normal;font-stretch:normal;font-size:10.58333302px;line-height:1.25;font-family:Cookie;-inkscape-font-specification:Cookie;letter-spacing:0px;word-spacing:0px;display:inline;fill:#2a2f36;fill-opacity:1;stroke:none;stroke-width:0.26458332"
       id="path1717" />
    <path
       d="m 98.464163,49.070289 q -0.41275,0 -0.62442,-0.16933 -0.0741,-0.0741 -0.0741,-0.37042 0,-0.30692 0.0212,-0.81492 -0.27516,0.68792 -0.55033,1.02659 -0.26458,0.32808 -0.68792,0.32808 -0.42333,0 -0.74083,-0.39158 -0.3175,-0.40217 -0.3175,-1.24884 0,-0.85725 0.47625,-1.51341 0.48683,-0.65617 1.27,-0.65617 0.33867,0 0.762,0.4445 0.0847,-0.11642 0.29633,-0.27517 0.22225,-0.16933 0.37042,-0.16933 0.15875,0 0.15875,0.40217 0,0.10583 -0.0635,0.41275 -0.0529,0.30691 -0.127,0.4445 -0.0952,0.24341 -0.0952,1.72508 0,0.28575 0.0635,0.28575 0.17992,-0.0106 0.49742,-0.4445 0.3175,-0.4445 0.62441,-1.13242 0.317497,-0.68791 0.380997,-0.68791 0.0741,0 0.0741,0.0847 0,0.29634 -0.306917,0.94192 -0.83608,1.778 -1.40758,1.778 z m -1.29117,-3.38667 q -0.29633,0 -0.635,0.4445 -0.32808,0.43392 -0.32808,1.02659 0,0.59266 0.16933,0.97366 0.17992,0.381 0.46567,0.381 0.34925,0 1.02658,-1.74625 0.0106,-0.0847 0.0212,-0.28575 0.0212,-0.21166 0.0317,-0.3175 -0.0952,-0.16933 -0.33867,-0.3175 -0.23283,-0.15875 -0.41275,-0.15875 z"
       style="font-style:normal;font-variant:normal;font-weight:normal;font-stretch:normal;font-size:10.58333302px;line-height:1.25;font-family:Cookie;-inkscape-font-specification:Cookie;letter-spacing:0px;word-spacing:0px;display:inline;fill:#2a2f36;fill-opacity:1;stroke:none;stroke-width:0.26458332"
       id="path1719" />
    <path
       d="m 102.9495,49.387789 0.28575,-0.0317 q 0.0847,0 0.0847,0.0847 0,0.14816 -0.20108,0.22225 -0.20109,0.0741 -0.45509,0.0741 -0.47625,0 -0.80433,-0.381 -0.3175,-0.381 -0.889,-1.40758 -0.13758,-0.22225 -0.13758,-0.33867 0,-0.15875 0.4445,-0.37042 0.71966,-0.37041 0.71966,-0.93133 0,-0.15875 -0.11641,-0.26458 -0.10584,-0.11642 -0.28575,-0.11642 -0.254,0 -0.60325,0.60325 -0.34925,0.59267 -0.47625,1.12183 -0.11642,0.51859 -0.11642,1.12184 0,0.29633 -0.16933,0.29633 -0.243417,0 -0.465667,-0.0635 -0.22225,-0.0741 -0.22225,-0.17992 0,-0.11641 0.0847,-1.00541 0.0847,-0.89959 0.0952,-1.29117 0.0423,-2.159 0.254,-3.302 0.0317,-0.0953 0.285747,-0.32808 0.26458,-0.23284 0.42333,-0.23284 0.15875,0 0.14817,0.40217 0,0.39158 -0.16934,1.69333 -0.16933,1.30175 -0.21166,2.38125 0.1905,-0.67733 0.60325,-1.28058 0.42333,-0.60325 0.84666,-0.60325 0.71967,0 0.71967,0.6985 0,0.46567 -0.27517,0.84667 -0.27516,0.37041 -0.74083,0.60325 -0.0953,0.0423 -0.0953,0.0952 0,0.0529 0.0318,0.10583 0.66675,1.17475 1.13242,1.651 0.127,0.127 0.27516,0.127 z"
       style="font-style:normal;font-variant:normal;font-weight:normal;font-stretch:normal;font-size:10.58333302px;line-height:1.25;font-family:Cookie;-inkscape-font-specification:Cookie;letter-spacing:0px;word-spacing:0px;display:inline;fill:#2a2f36;fill-opacity:1;stroke:none;stroke-width:0.26458332"
       id="path1721" />
    <path
       d="m 105.55036,47.292289 q -0.83608,1.778 -1.41817,1.778 -0.5715,0 -0.67733,-0.13758 -0.0952,-0.13759 -0.0952,-0.91017 0,-0.77258 0.14817,-2.23308 -0.52917,-0.10584 -0.56092,-0.43392 0,-0.16933 0.22225,-0.16933 0.22225,0 0.39158,0.0847 0.0952,-0.762 0.22225,-1.54516 0.0317,-0.20109 0.20109,-0.381 0.16933,-0.17992 0.32808,-0.17992 0.13758,0 0.13758,0.43392 0,0.20108 -0.14816,1.85208 0.28575,-0.0529 0.62441,-0.21167 0.34925,-0.15875 0.41275,-0.15875 0.1905,0 0.1905,0.11642 0.0106,0.10583 -0.39158,0.29633 -0.40217,0.17992 -0.86783,0.27517 -0.127,1.54517 -0.127,2.33892 0,0.42333 0.127,0.42333 0.1905,-0.0106 0.508,-0.4445 0.3175,-0.43392 0.62441,-1.12183 0.3175,-0.6985 0.381,-0.6985 0.0741,0 0.0741,0.0847 0,0.29634 -0.30692,0.94192 z"
       style="font-style:normal;font-variant:normal;font-weight:normal;font-stretch:normal;font-size:10.58333302px;line-height:1.25;font-family:Cookie;-inkscape-font-specification:Cookie;letter-spacing:0px;word-spacing:0px;display:inline;fill:#2a2f36;fill-opacity:1;stroke:none;stroke-width:0.26458332"
       id="path1723" />
    <path
       d="m 111.71399,48.900959 q -0.0741,-0.0741 -0.0741,-0.381 0,-0.3175 0.0212,-0.91017 -0.29634,0.75142 -0.5715,1.11125 -0.26459,0.34925 -0.6985,0.34925 -0.43392,0 -0.75142,-0.39158 -0.3175,-0.40217 -0.3175,-1.24884 0,-0.85725 0.47625,-1.51341 0.48683,-0.65617 1.27,-0.65617 0.33867,0 0.762,0.4445 0.0952,-0.13758 0.3175,-0.33867 0.22225,-0.21166 0.37042,-0.21166 0.15875,0 0.15875,0.45508 0,0.45508 -0.15875,0.80433 -0.15875,0.34925 -0.15875,1.18534 0,0.83608 0.0635,0.9525 0.0635,0.11641 0.23283,0.11641 0.34925,0 0.62442,-0.33866 0.28575,-0.33867 0.41275,-0.762 0.13758,-0.43392 0.13758,-0.80434 0,-1.21708 -0.58208,-2.02141 -0.5715,-0.81492 -1.62984,-0.81492 -1.04775,0 -1.83091,0.56092 -0.77259,0.55033 -1.16417,1.38641 -0.39158,0.83609 -0.39158,1.73567 0,1.25942 0.81491,1.98967 0.81492,0.73025 1.93675,0.73025 0.91017,0 1.86267,-0.47625 0.52917,-0.26459 0.60325,-0.26459 0.0847,0 0.0847,0.14817 0,0.21167 -0.66675,0.5715 -1.15359,0.62442 -2.46592,0.62442 -1.30175,0 -2.14842,-0.80434 -0.83608,-0.79375 -0.83608,-2.11666 0,-1.9685 1.19592,-3.22792 1.19592,-1.25942 3.16442,-1.25942 0.86784,0 1.54517,0.46567 0.68792,0.45508 1.00542,1.0795 0.32808,0.62442 0.32808,1.22767 0,1.23825 -0.58208,2.01083 -0.58209,0.762 -1.68275,0.762 -0.46567,0 -0.67734,-0.16933 z m -0.70908,-3.21734 q -0.29633,0 -0.635,0.4445 -0.32808,0.43392 -0.32808,1.02659 0,0.59266 0.16933,0.97366 0.17992,0.381 0.46567,0.381 0.35983,0 1.04775,-1.80975 l 0.0423,-0.52916 q -0.0952,-0.16934 -0.33867,-0.32809 -0.24341,-0.15875 -0.42333,-0.15875 z"
       style="font-style:normal;font-variant:normal;font-weight:normal;font-stretch:normal;font-size:10.58333302px;line-height:1.25;font-family:Cookie;-inkscape-font-specification:Cookie;letter-spacing:0px;word-spacing:0px;display:inline;fill:#2a2f36;fill-opacity:1;stroke:none;stroke-width:0.26458332"
       id="path1725" />
    <path
       d="m 117.38434,48.615209 q 0.13759,-2.77284 0.14817,-2.87867 0.0212,-0.10583 0.30692,-0.33867 0.28575,-0.24341 0.43391,-0.24341 0.15875,0 0.15875,0.45508 0,0.45508 -0.1905,0.80433 -0.0952,0.80434 -0.11641,1.31234 1.03716,-1.31234 1.10066,-1.38642 0.0741,-0.0741 0.127,-0.0741 0.10584,0 0.10584,0.10583 0,0.0635 -0.0423,0.13758 -0.33866,0.49742 -1.3335,1.74625 -0.0635,1.25942 -0.0847,1.7145 -0.0529,1.34409 -0.381,1.88384 -0.3175,0.55033 -1.143,0.55033 -0.35984,0 -0.66675,-0.22225 -0.3175,-0.21167 -0.3175,-0.67733 0,-0.45509 0.22225,-0.87842 0.21166,-0.42333 0.45508,-0.6985 0.23283,-0.27517 0.65617,-0.70908 0.41275,-0.43392 0.56091,-0.60325 z m -0.0318,0.49741 q -1.2065,1.30175 -1.2065,2.08492 0,0.35983 0.127,0.59267 0.127,0.23283 0.34925,0.23283 0.33867,0 0.47625,-0.37042 0.13759,-0.37041 0.20109,-1.50283 z m 0.35984,-5.2705 q 0,-0.1905 0.20108,-0.32808 0.20108,-0.13758 0.35983,-0.13758 0.28575,0 0.28575,0.32808 0,0.32808 -0.16933,0.5715 -0.16933,0.23283 -0.47625,0.23283 -0.20108,0 -0.20108,-0.66675 z"
       style="font-style:normal;font-variant:normal;font-weight:normal;font-stretch:normal;font-size:10.58333302px;line-height:1.25;font-family:Cookie;-inkscape-font-specification:Cookie;letter-spacing:0px;word-spacing:0px;display:inline;fill:#2a2f36;fill-opacity:1;stroke:none;stroke-width:0.26458332"
       id="path1727" />
    <path
       d="m 121.9666,49.070289 q -0.41275,0 -0.62442,-0.16933 -0.0741,-0.0741 -0.0741,-0.37042 0,-0.30692 0.0212,-0.81492 -0.27516,0.68792 -0.55032,1.02659 -0.26459,0.32808 -0.68792,0.32808 -0.42333,0 -0.74083,-0.39158 -0.3175,-0.40217 -0.3175,-1.24884 0,-0.85725 0.47625,-1.51341 0.48683,-0.65617 1.27,-0.65617 0.33866,0 0.762,0.4445 0.0847,-0.11642 0.29633,-0.27517 0.22225,-0.16933 0.37042,-0.16933 0.15875,0 0.15875,0.40217 0,0.10583 -0.0635,0.41275 -0.0529,0.30691 -0.127,0.4445 -0.0952,0.24341 -0.0952,1.72508 0,0.28575 0.0635,0.28575 0.17991,-0.0106 0.49741,-0.4445 0.3175,-0.4445 0.62442,-1.13242 0.3175,-0.68791 0.381,-0.68791 0.0741,0 0.0741,0.0847 0,0.29634 -0.30692,0.94192 -0.83608,1.778 -1.40758,1.778 z m -1.29117,-3.38667 q -0.29633,0 -0.635,0.4445 -0.32808,0.43392 -0.32808,1.02659 0,0.59266 0.16933,0.97366 0.17992,0.381 0.46567,0.381 0.34925,0 1.02658,-1.74625 0.0106,-0.0847 0.0212,-0.28575 0.0212,-0.21166 0.0318,-0.3175 -0.0952,-0.16933 -0.33867,-0.3175 -0.23283,-0.15875 -0.41275,-0.15875 z"
       style="font-style:normal;font-variant:normal;font-weight:normal;font-stretch:normal;font-size:10.58333302px;line-height:1.25;font-family:Cookie;-inkscape-font-specification:Cookie;letter-spacing:0px;word-spacing:0px;display:inline;fill:#2a2f36;fill-opacity:1;stroke:none;stroke-width:0.26458332"
       id="path1729" />
    <path
       d="m 126.45195,49.387789 0.28575,-0.0317 q 0.0847,0 0.0847,0.0847 0,0.14816 -0.20108,0.22225 -0.20108,0.0741 -0.45508,0.0741 -0.47625,0 -0.80434,-0.381 -0.3175,-0.381 -0.889,-1.40758 -0.13758,-0.22225 -0.13758,-0.33867 0,-0.15875 0.4445,-0.37042 0.71967,-0.37041 0.71967,-0.93133 0,-0.15875 -0.11642,-0.26458 -0.10583,-0.11642 -0.28575,-0.11642 -0.254,0 -0.60325,0.60325 -0.34925,0.59267 -0.47625,1.12183 -0.11642,0.51859 -0.11642,1.12184 0,0.29633 -0.16933,0.29633 -0.24342,0 -0.46567,-0.0635 -0.22225,-0.0741 -0.22225,-0.17992 0,-0.11641 0.0847,-1.00541 0.0847,-0.89959 0.0952,-1.29117 0.0423,-2.159 0.254,-3.302 0.0318,-0.0953 0.28575,-0.32808 0.26458,-0.23284 0.42333,-0.23284 0.15875,0 0.14817,0.40217 0,0.39158 -0.16933,1.69333 -0.16934,1.30175 -0.21167,2.38125 0.1905,-0.67733 0.60325,-1.28058 0.42333,-0.60325 0.84667,-0.60325 0.71966,0 0.71966,0.6985 0,0.46567 -0.27516,0.84667 -0.27517,0.37041 -0.74084,0.60325 -0.0952,0.0423 -0.0952,0.0952 0,0.0529 0.0317,0.10583 0.66675,1.17475 1.13242,1.651 0.127,0.127 0.27517,0.127 z"
       style="font-style:normal;font-variant:normal;font-weight:normal;font-stretch:normal;font-size:10.58333302px;line-height:1.25;font-family:Cookie;-inkscape-font-specification:Cookie;letter-spacing:0px;word-spacing:0px;display:inline;fill:#2a2f36;fill-opacity:1;stroke:none;stroke-width:0.26458332"
       id="path1731" />
    <path
       d="m 127.45472,49.070289 q -0.23284,0 -0.43392,-0.0529 -0.1905,-0.0635 -0.23283,-0.11641 -0.10584,-0.127 -0.10584,-1.31234 0,-1.19591 0.26459,-3.2385 0.22225,-1.68275 1.03716,-1.68275 0.1905,0 0.27517,0.21167 0.0847,0.20108 0.0847,0.39158 0,1.37584 -0.83609,3.07975 -0.0318,0.87842 -0.0318,1.53459 0,0.64558 0.11642,0.64558 0.17992,-0.0106 0.49742,-0.4445 0.3175,-0.4445 0.62441,-1.13242 0.3175,-0.68791 0.381,-0.68791 0.0741,0 0.0741,0.0847 0,0.29634 -0.30692,0.94192 -0.83608,1.778 -1.40758,1.778 z m 0.62441,-5.70442 q 0,-0.33866 -0.0847,-0.33866 -0.3175,0 -0.46567,2.63525 0.55033,-1.44992 0.55033,-2.29659 z"
       style="font-style:normal;font-variant:normal;font-weight:normal;font-stretch:normal;font-size:10.58333302px;line-height:1.25;font-family:Cookie;-inkscape-font-specification:Cookie;letter-spacing:0px;word-spacing:0px;display:inline;fill:#2a2f36;fill-opacity:1;stroke:none;stroke-width:0.26458332"
       id="path1733" />
    <path
       d="m 128.93407,43.842119 q 0,-0.1905 0.20108,-0.32808 0.20108,-0.13758 0.35983,-0.13758 0.28575,0 0.28575,0.32808 0,0.32808 -0.16933,0.5715 -0.16933,0.23283 -0.47625,0.23283 -0.20108,0 -0.20108,-0.66675 z m 0.30691,5.22817 q -0.41275,0 -0.62441,-0.16933 -0.0741,-0.0741 -0.0741,-0.52917 0,-0.45508 0.0635,-1.51342 0.0741,-1.06891 0.127,-1.15358 0.0529,-0.0847 0.32809,-0.3175 0.27516,-0.23283 0.42333,-0.23283 0.15875,0 0.15875,0.40216 0,0.10584 -0.0635,0.41275 -0.0529,0.30692 -0.127,0.4445 -0.13758,0.34925 -0.13758,1.83092 0,0.28575 0.0635,0.28575 0.17991,-0.0106 0.49741,-0.4445 0.3175,-0.4445 0.62442,-1.13242 0.3175,-0.68791 0.381,-0.68791 0.0741,0 0.0741,0.0847 0,0.29634 -0.30691,0.94192 -0.83609,1.778 -1.40759,1.778 z"
       style="font-style:normal;font-variant:normal;font-weight:normal;font-stretch:normal;font-size:10.58333302px;line-height:1.25;font-family:Cookie;-inkscape-font-specification:Cookie;letter-spacing:0px;word-spacing:0px;display:inline;fill:#2a2f36;fill-opacity:1;stroke:none;stroke-width:0.26458332"
       id="path1735" />
    <path
       d="m 131.17542,49.070289 q -0.23283,0 -0.43392,-0.0529 -0.1905,-0.0635 -0.23283,-0.11641 -0.10583,-0.127 -0.10583,-1.31234 0,-1.19591 0.26458,-3.2385 0.22225,-1.68275 1.03717,-1.68275 0.1905,0 0.27516,0.21167 0.0847,0.20108 0.0847,0.39158 0,1.37584 -0.83608,3.07975 -0.0318,0.87842 -0.0318,1.53459 0,0.64558 0.11641,0.64558 0.17992,-0.0106 0.49742,-0.4445 0.3175,-0.4445 0.62442,-1.13242 0.3175,-0.68791 0.381,-0.68791 0.0741,0 0.0741,0.0847 0,0.29634 -0.30692,0.94192 -0.83608,1.778 -1.40758,1.778 z m 0.62442,-5.70442 q 0,-0.33866 -0.0847,-0.33866 -0.3175,0 -0.46567,2.63525 0.55034,-1.44992 0.55034,-2.29659 z"
       style="font-style:normal;font-variant:normal;font-weight:normal;font-stretch:normal;font-size:10.58333302px;line-height:1.25;font-family:Cookie;-inkscape-font-specification:Cookie;letter-spacing:0px;word-spacing:0px;display:inline;fill:#2a2f36;fill-opacity:1;stroke:none;stroke-width:0.26458332"
       id="path1737" />
    <path
       d="m 132.65477,43.842119 q 0,-0.1905 0.20108,-0.32808 0.20109,-0.13758 0.35984,-0.13758 0.28575,0 0.28575,0.32808 0,0.32808 -0.16934,0.5715 -0.16933,0.23283 -0.47625,0.23283 -0.20108,0 -0.20108,-0.66675 z m 0.30692,5.22817 q -0.41275,0 -0.62442,-0.16933 -0.0741,-0.0741 -0.0741,-0.52917 0,-0.45508 0.0635,-1.51342 0.0741,-1.06891 0.127,-1.15358 0.0529,-0.0847 0.32808,-0.3175 0.27517,-0.23283 0.42333,-0.23283 0.15875,0 0.15875,0.40216 0,0.10584 -0.0635,0.41275 -0.0529,0.30692 -0.127,0.4445 -0.13758,0.34925 -0.13758,1.83092 0,0.28575 0.0635,0.28575 0.17992,-0.0106 0.49742,-0.4445 0.3175,-0.4445 0.62441,-1.13242 0.3175,-0.68791 0.381,-0.68791 0.0741,0 0.0741,0.0847 0,0.29634 -0.30692,0.94192 -0.83608,1.778 -1.40758,1.778 z"
       style="font-style:normal;font-variant:normal;font-weight:normal;font-stretch:normal;font-size:10.58333302px;line-height:1.25;font-family:Cookie;-inkscape-font-specification:Cookie;letter-spacing:0px;word-spacing:0px;display:inline;fill:#2a2f36;fill-opacity:1;stroke:none;stroke-width:0.26458332"
       id="path1739" />
    <path
       d="m 137.09746,49.070289 q -0.41275,0 -0.62442,-0.16933 -0.0741,-0.0741 -0.0741,-0.37042 0,-0.30692 0.0212,-0.81492 -0.27516,0.68792 -0.55033,1.02659 -0.26458,0.32808 -0.68791,0.32808 -0.42334,0 -0.74084,-0.39158 -0.3175,-0.40217 -0.3175,-1.24884 0,-0.85725 0.47625,-1.51341 0.48684,-0.65617 1.27,-0.65617 0.33867,0 0.762,0.4445 0.0847,-0.11642 0.29634,-0.27517 0.22225,-0.16933 0.37041,-0.16933 0.15875,0 0.15875,0.40217 0,0.10583 -0.0635,0.41275 -0.0529,0.30691 -0.127,0.4445 -0.0952,0.24341 -0.0952,1.72508 0,0.28575 0.0635,0.28575 0.17992,-0.0106 0.49742,-0.4445 0.3175,-0.4445 0.62442,-1.13242 0.3175,-0.68791 0.381,-0.68791 0.0741,0 0.0741,0.0847 0,0.29634 -0.30691,0.94192 -0.83608,1.778 -1.40758,1.778 z m -1.29117,-3.38667 q -0.29633,0 -0.635,0.4445 -0.32808,0.43392 -0.32808,1.02659 0,0.59266 0.16933,0.97366 0.17992,0.381 0.46567,0.381 0.34925,0 1.02658,-1.74625 0.0106,-0.0847 0.0212,-0.28575 0.0212,-0.21166 0.0317,-0.3175 -0.0952,-0.16933 -0.33866,-0.3175 -0.23284,-0.15875 -0.41275,-0.15875 z"
       style="font-style:normal;font-variant:normal;font-weight:normal;font-stretch:normal;font-size:10.58333302px;line-height:1.25;font-family:Cookie;-inkscape-font-specification:Cookie;letter-spacing:0px;word-spacing:0px;display:inline;fill:#2a2f36;fill-opacity:1;stroke:none;stroke-width:0.26458332"
       id="path1741" />
    <path
       d="m 138.92639,49.207869 q -0.15875,0 -0.30692,-0.10583 -0.14816,-0.0952 -0.14816,-0.32808 0,-0.23284 0.21166,-0.35984 0.21167,-0.13758 0.39159,-0.13758 0.17991,0 0.29633,0.10583 0.127,0.0952 0.127,0.24342 0,0.58208 -0.5715,0.58208 z"
       style="font-style:normal;font-variant:normal;font-weight:normal;font-stretch:normal;font-size:10.58333302px;line-height:1.25;font-family:Cookie;-inkscape-font-specification:Cookie;letter-spacing:0px;word-spacing:0px;display:inline;fill:#2a2f36;fill-opacity:1;stroke:none;stroke-width:0.26458332"
       id="path1743" />
    <path
       d="m 140.38408,45.725959 q 0.11642,-0.13759 0.37042,-0.34925 0.254,-0.22225 0.40216,-0.22225 0.14817,0 0.14817,0.42333 0,0.41275 -0.22225,0.81492 -0.0423,0.1905 -0.0635,0.55033 0.30692,-0.83608 0.61383,-1.25942 0.30692,-0.42333 0.74084,-0.42333 0.4445,0 0.77258,0.40217 0.32808,0.39158 0.32808,1.24883 0,0.84667 -0.48683,1.50283 -0.47625,0.65617 -1.25942,0.65617 -0.40216,0 -0.81491,-0.29633 0,2.02141 -0.23284,3.07975 -0.0212,0.0952 -0.28575,0.3175 -0.254,0.23283 -0.37041,0.23283 -0.127,0 -0.17992,-0.16933 -0.0529,-0.16934 -0.0529,-0.3175 0,-1.09009 0.4445,-2.80459 0.0741,-0.99483 0.0952,-2.18016 0.0318,-1.18534 0.0529,-1.2065 z m 1.40758,2.96333 q 0.30692,0 0.635,-0.42333 0.32809,-0.43392 0.32809,-1.05834 0,-0.635 -0.17992,-1.00541 -0.16933,-0.381 -0.46567,-0.381 -0.508,0 -1.15358,2.10608 -0.0212,0.29633 -0.0212,0.46567 0.29634,0.29633 0.85725,0.29633 z"
       style="font-style:normal;font-variant:normal;font-weight:normal;font-stretch:normal;font-size:10.58333302px;line-height:1.25;font-family:Cookie;-inkscape-font-specification:Cookie;letter-spacing:0px;word-spacing:0px;display:inline;fill:#2a2f36;fill-opacity:1;stroke:none;stroke-width:0.26458332"
       id="path1745" />
    <path
       d="m 144.63196,49.070289 q -0.23283,0 -0.43392,-0.0529 -0.1905,-0.0635 -0.23283,-0.11641 -0.10583,-0.127 -0.10583,-1.31234 0,-1.19591 0.26458,-3.2385 0.22225,-1.68275 1.03717,-1.68275 0.1905,0 0.27516,0.21167 0.0847,0.20108 0.0847,0.39158 0,1.37584 -0.83607,3.07975 -0.0317,0.87842 -0.0317,1.53459 0,0.64558 0.11641,0.64558 0.17992,-0.0106 0.49742,-0.4445 0.3175,-0.4445 0.62442,-1.13242 0.3175,-0.68791 0.381,-0.68791 0.0741,0 0.0741,0.0847 0,0.29634 -0.30693,0.94192 -0.83607,1.778 -1.40757,1.778 z m 0.62442,-5.70442 q 0,-0.33866 -0.0847,-0.33866 -0.3175,0 -0.46567,2.63525 0.55034,-1.44992 0.55034,-2.29659 z"
       style="font-style:normal;font-variant:normal;font-weight:normal;font-stretch:normal;font-size:10.58333302px;line-height:1.25;font-family:Cookie;-inkscape-font-specification:Cookie;letter-spacing:0px;word-spacing:0px;display:inline;fill:#2a2f36;fill-opacity:1;stroke:none;stroke-width:0.26458332"
       id="path1747" />
  </g>
</svg>
